<svg width="131" height="182" viewBox="0 0 131 182" fill="none" xmlns="http://www.w3.org/2000/svg">
<path fill-rule="evenodd" clip-rule="evenodd" d="M120.459 3.96847C120.162 6.35647 119.643 11.0105 119.305 14.3105C118.302 24.1045 114.261 41.6985 110.891 50.9415C107.209 61.0435 100.746 72.5495 92.3482 83.9535C88.9192 88.6105 76.9262 101.297 64.3552 113.565L42.3622 135.029L60.8552 121.782C83.7842 105.356 89.4572 101.003 98.2122 93.1185C110.164 82.3545 121.032 68.3185 127.796 54.9155C131.023 48.5195 131.023 48.5195 129.443 36.9155C128.055 26.7305 122.458 1.08647 121.389 0.0174715C121.174 -0.196528 120.755 1.58047 120.459 3.96847ZM85.8892 34.3195C77.4302 39.4925 77.4302 39.4925 76.1982 47.9015C72.4732 73.3325 61.9852 94.7315 35.6332 130.671C25.8762 143.978 26.1082 143.636 28.0632 141.81C30.7712 139.281 57.7422 108.742 63.8312 101.31C74.9742 87.7105 83.9132 71.7725 88.7902 56.8105C91.0412 49.9015 95.1342 31.0535 94.6412 29.8585C94.4802 29.4675 90.5422 31.4745 85.8892 34.3195ZM37.3442 62.5775C32.3922 65.8945 27.4732 69.5675 26.4122 70.7395C24.7582 72.5665 24.4432 74.6805 24.1982 85.5905C24.0412 92.5865 23.0122 103.559 21.9122 109.974C20.3362 119.16 13.8402 147.11 10.2122 160.31C9.66323 162.31 9.66323 162.31 11.1292 160.31C14.0352 156.345 27.8592 129.058 32.7952 117.542C35.5702 111.07 39.1972 101.207 40.8552 95.6235C43.8382 85.5845 47.2572 64.0675 46.6582 59.1095C46.3512 56.5675 46.2732 56.5965 37.3442 62.5775ZM128.848 95.3285C126.074 98.7105 113.02 108.582 103.646 114.386C98.5322 117.553 84.6732 125.082 72.8482 131.119C49.3702 143.103 42.9242 146.737 32.3482 153.948C20.1442 162.27 20.0432 162.972 31.8482 157.401C43.9202 151.704 59.2762 146.274 86.9692 137.912C103.022 133.065 122.074 125.72 124.549 123.424C125.845 122.221 131.142 97.5625 130.648 95.0325C130.395 93.7395 130.113 93.7865 128.848 95.3285ZM3.46522 107.06C0.657223 116.731 -0.417776 127.005 0.144224 138.81C0.826224 153.144 2.80622 165.636 4.04622 163.421C5.02122 161.678 6.51123 101.81 5.57923 101.81C5.25523 101.81 4.30422 104.172 3.46522 107.06ZM78.8482 157.836C54.5102 160.657 34.9682 164.191 25.0312 167.569C19.8442 169.332 19.8442 169.332 40.5962 169.321C52.0102 169.315 67.3202 169.93 74.6202 170.687C87.8922 172.064 87.8922 172.064 93.1202 168.509C95.9952 166.554 100.823 162.692 103.848 159.926C109.33 154.913 109.338 154.897 106.348 154.946C104.698 154.974 92.3232 156.274 78.8482 157.836ZM9.35322 175.729C7.95922 176.273 10.9712 177.141 19.3532 178.612C34.1252 181.203 45.3242 181.966 53.8482 180.962C60.3482 180.196 60.3482 180.196 56.2162 178.996C44.4722 175.586 14.9852 173.531 9.35322 175.729Z" fill="#98E5D8"/>
</svg>
